# xmcd CD database file
#
# Track frame offsets:
#	150
#	28725
#	56925
#	91282
#	143937
#	175657
#	198480
#	223800
#	243357
#	261145
#
# Disc length: 3922 seconds
#
# Revision: 2
# Processed by: cddbd v1.5.1PL0 Copyright (c) Steve Scherf et al.
# Submitted via: CDex 1.51
#
DISCID=950f500a
DTITLE=The Allman Brothers Band - Wild Bluesy Road
DYEAR=1991
DGENRE=
TTITLE0=Statesboro Blues
TTITLE1=End Of The Line
TTITLE2=Blue Sky
TTITLE3=Nobody Knows
TTITLE4=Low Down Dirty Mean
TTITLE5=Melissa ( Acoustic )
TTITLE6=Come On My Kitchen ( Acoustic )
TTITLE7=Midnight Rider ( Acoustic )
TTITLE8=Goin' down The Road Feelin' bad  (Acoustic)
TTITLE9=Hoochie Coochie Man
EXTD=Doble Cd YEAR: 1991
EXTT0=
EXTT1=
EXTT2=
EXTT3=
EXTT4=
EXTT5=
EXTT6=
EXTT7=
EXTT8=
EXTT9=
PLAYORDER=
